<mxfile host="app.diagrams.net" modified="2024-03-15T16:48:12.577Z" agent="Mozilla/5.0 (Macintosh; Intel Mac OS X 10.15; rv:123.0) Gecko/20100101 Firefox/123.0" etag="d6S4bWOjFN8UHoCt1Xif" version="24.0.7" type="github">
  <diagram name="Page-1" id="X0xSt-SWy11rhMywBng7">
    <mxGraphModel dx="4148" dy="2314" grid="1" gridSize="10" guides="1" tooltips="1" connect="1" arrows="1" fold="1" page="1" pageScale="1" pageWidth="2336" pageHeight="1654" math="0" shadow="0">
      <root>
        <mxCell id="0" />
        <mxCell id="1" parent="0" />
        <mxCell id="Mb9JKRKesuMYNs0WhxOA-1" value="asdasdasd" style="ellipse;whiteSpace=wrap;html=1;" parent="1" vertex="1">
          <mxGeometry x="1000" y="667" width="320" height="320" as="geometry" />
        </mxCell>
      </root>
    </mxGraphModel>
  </diagram>
</mxfile>
